<?xml version="1.0" encoding="UTF-8" standalone="no"?>
<!-- Created with Inkscape (http://www.inkscape.org/) -->

<svg
   width="126.79221mm"
   height="152.04195mm"
   viewBox="0 0 126.79221 152.04195"
   version="1.1"
   id="svg18"
   xml:space="preserve"
   xmlns="http://www.w3.org/2000/svg"
   xmlns:svg="http://www.w3.org/2000/svg"><defs
     id="defs15"><clipPath
       clipPathUnits="userSpaceOnUse"
       id="clipPath369"><path
         style="display:none;fill:#000000;stroke-width:0.264583"
         d="M 97.819133,75.623661 96.879259,88.70959 104.90433,87.697416 100.78335,75.262171 Z"
         id="path371" /><path
         id="lpe_path-effect373"
         style="display:inline;fill:#000000;stroke-width:0.264583"
         class="powerclip"
         d="M 78.648733,62.88778 H 125.3038 V 110.7719 H 78.648733 Z m 19.1704,12.735881 -0.939874,13.085929 8.025071,-1.012174 -4.12098,-12.435245 z" /></clipPath></defs><g
     id="layer8"
     style="display:inline;fill:#000000;fill-opacity:1"
     transform="translate(-40.766789,-24.314676)"><text
       xml:space="preserve"
       style="font-style:normal;font-variant:normal;font-weight:900;font-stretch:normal;font-size:13.633px;font-family:Arial;-inkscape-font-specification:'Arial Heavy';fill:#000000;fill-opacity:1;stroke:none;stroke-width:0.603802;stroke-dasharray:none;stroke-opacity:0"
       x="63.220535"
       y="134.61618"
       id="text21961"
       transform="scale(0.84436359,1.1843239)"><tspan
         id="tspan21959"
         style="font-style:normal;font-variant:normal;font-weight:900;font-stretch:normal;font-family:Arial;-inkscape-font-specification:'Arial Heavy';fill:#000000;fill-opacity:1;stroke-width:0.603802"
         x="63.220535"
         y="134.61618">AZZ</tspan></text><text
       xml:space="preserve"
       style="font-style:normal;font-variant:normal;font-weight:900;font-stretch:normal;font-size:13.3543px;font-family:Arial;-inkscape-font-specification:'Arial Heavy';letter-spacing:-0.157118px;fill:#000000;fill-opacity:1;stroke:none;stroke-width:0.591445;stroke-dasharray:none;stroke-opacity:0"
       x="108.82422"
       y="130.08295"
       id="text21965"
       transform="scale(0.81608227,1.2253666)"><tspan
         id="tspan21963"
         style="font-style:normal;font-variant:normal;font-weight:900;font-stretch:normal;font-family:Arial;-inkscape-font-specification:'Arial Heavy';fill:#000000;fill-opacity:1;stroke-width:0.591446"
         x="108.82422"
         y="130.08295"
         dx="1.0970798">REUNDE</tspan></text><text
       xml:space="preserve"
       style="font-style:normal;font-variant:normal;font-weight:900;font-stretch:normal;font-size:19.8297px;font-family:Arial;-inkscape-font-specification:'Arial Heavy';fill:#000000;fill-opacity:1;stroke:none;stroke-width:0.878282;stroke-dasharray:none;stroke-opacity:0"
       x="86.764206"
       y="144.68906"
       id="text21969"
       transform="scale(0.91014968,1.0987204)"><tspan
         id="tspan21967"
         style="font-style:normal;font-variant:normal;font-weight:900;font-stretch:normal;font-family:Arial;-inkscape-font-specification:'Arial Heavy';fill:#000000;fill-opacity:1;stroke-width:0.878282"
         x="86.764206"
         y="144.68906">F</tspan></text><text
       xml:space="preserve"
       style="font-style:normal;font-variant:normal;font-weight:900;font-stretch:normal;font-size:19.1688px;font-family:Arial;-inkscape-font-specification:'Arial Heavy';fill:#000000;fill-opacity:1;stroke:none;stroke-width:0.849009;stroke-dasharray:none;stroke-opacity:0"
       x="90.91951"
       y="152.58391"
       id="text22199"
       transform="scale(0.86562644,1.1552327)"><tspan
         id="tspan22197"
         style="fill:#000000;fill-opacity:1;stroke-width:0.849011"
         x="90.91951"
         y="152.58391">I</tspan></text><text
       xml:space="preserve"
       style="font-style:normal;font-variant:normal;font-weight:900;font-stretch:normal;font-size:13.4016px;font-family:Arial;-inkscape-font-specification:'Arial Heavy';letter-spacing:-0.69875px;fill:#000000;fill-opacity:1;stroke:none;stroke-width:0.593571;stroke-dasharray:none;stroke-opacity:0"
       x="99.994003"
       y="148.97807"
       id="text22203"
       transform="scale(0.84568223,1.1824772)"><tspan
         id="tspan22201"
         style="fill:#000000;fill-opacity:1;stroke-width:0.593572"
         x="99.994003"
         y="148.97807">NGOLSTADT </tspan></text><text
       xml:space="preserve"
       style="font-style:normal;font-variant:normal;font-weight:900;font-stretch:normal;font-size:6.26085px;font-family:Arial;-inkscape-font-specification:'Arial Heavy';display:inline;fill:#000000;fill-opacity:1;stroke:none;stroke-width:0.2773;stroke-dasharray:none;stroke-opacity:0"
       x="199.81866"
       y="139.32269"
       id="text23810"
       transform="scale(0.79090483,1.2643746)"><tspan
         id="tspan23808"
         style="fill:#000000;fill-opacity:1;stroke-width:0.277301"
         x="199.81866"
         y="139.32269">e.V.</tspan></text><text
       xml:space="preserve"
       style="font-style:normal;font-variant:normal;font-weight:900;font-stretch:normal;font-size:18.3954px;font-family:Arial;-inkscape-font-specification:'Arial Heavy';fill:#000000;fill-opacity:1;stroke-width:4.05566;stroke-dasharray:none"
       x="53.587219"
       y="132.30655"
       id="text4995"
       transform="scale(0.83154766,1.2025769)"><tspan
         id="tspan4993"
         style="font-style:normal;font-variant:normal;font-weight:900;font-stretch:normal;font-family:Arial;-inkscape-font-specification:'Arial Heavy';fill:#000000;fill-opacity:1;stroke-width:4.05566"
         x="53.587219"
         y="132.30655">J</tspan></text></g><g
     id="layer7"
     style="display:inline;stroke:#000000;stroke-width:0.5;stroke-dasharray:none;stroke-opacity:1"
     transform="translate(-40.766789,-24.314676)"><g
       id="g8550"
       style="display:inline;fill:#ffffff;fill-opacity:1;stroke:#000000;stroke-width:0.5;stroke-dasharray:none;stroke-opacity:1"><path
         style="display:inline;fill:none;fill-opacity:1;stroke:#000000;stroke-width:0.7;stroke-dasharray:none;stroke-opacity:1"
         d="m 121.28402,61.100078 15.46245,-4.91154 -0.28248,8.659927 -9.80403,14.669141 13.12814,-2.370185 -0.1499,5.297715 -16.0092,4.493154 -1.05892,-5.827213 8.69927,-16.75331 -10.53961,1.850222 z"
         id="path8548" /></g><g
       id="g8558"
       style="display:inline;fill:#ffffff;fill-opacity:1;stroke:#000000;stroke-width:0.449447;stroke-dasharray:none;stroke-opacity:1"
       transform="matrix(1.1910765,0,0,1.0390667,-17.613144,-13.500826)"><path
         style="fill:none;fill-opacity:1;stroke:#000000;stroke-width:0.629226;stroke-dasharray:none;stroke-opacity:1"
         d="m 99.489135,61.888114 17.807895,-6.457559 1.25981,4.796906 -10.64976,17.686637 7.92252,-1.628883 -3.06695,5.945796 -7.20764,1.634615 -0.0535,-4.980404 7.46349,-16.547529 -11.54795,3.434966 z"
         id="path8556" /></g><g
       id="g8110"
       style="display:inline;fill:#ffffff;fill-opacity:1;stroke:#000000;stroke-width:0.389429;stroke-dasharray:none;stroke-opacity:1"
       transform="matrix(1.2612766,-0.19297006,0.19046659,1.2778547,-32.724735,11.8124)"><g
         id="g10438"
         style="stroke:#000000;stroke-width:0.5452;stroke-dasharray:none;stroke-opacity:1"><path
           style="display:inline;fill:none;fill-opacity:1;stroke:#000000;stroke-width:0.5452;stroke-dasharray:none;stroke-opacity:1"
           d="m 83.538975,106.89094 7.558466,-38.538747 10.442859,0.180668 18.36228,31.800409 -7.25953,2.35359 -4.94964,-9.639878 -14.346806,1.613179 -1.912889,11.337049 z"
           id="path8108"
           clip-path="none" /><path
           style="display:block;fill:none;fill-opacity:1;stroke:#000000;stroke-width:0.5452;stroke-dasharray:none;stroke-opacity:1"
           d="M 95.358726,75.812201 94.624619,88.609153 103.07648,86.381224 98.877742,75.534493 Z"
           id="path8542" /></g></g><g
       id="g6109"
       style="display:inline;stroke:#000000;stroke-width:0.5;stroke-dasharray:none;stroke-opacity:1"><path
         style="display:inline;fill:none;fill-opacity:1;stroke:#000000;stroke-width:0.7;stroke-dasharray:none;stroke-opacity:1"
         d="M 41.13805,80.027147 56.100903,75.317411 C 51.369828,102.9788 77.284574,99.794839 77.175983,88.973545 77.117243,83.119996 68.668742,65.576343 52.277985,33.333546 l 19.268016,-8.53889 c 4.432473,14.494527 8.406079,27.135524 11.449251,39.456284 3.043172,12.320762 4.980412,23.530073 1.024247,29.251267 -1.925783,2.784965 -4.336443,5.978202 -14.993149,8.689463 -18.119885,4.61004 -26.699811,-7.397611 -27.8883,-22.164523 z"
         id="path6107" /></g></g><g
     id="layer6"
     style="display:inline;fill:#000000;fill-opacity:1"
     transform="translate(-40.766789,-24.314676)"><g
       id="layer5"
       style="fill:#000000;fill-opacity:1"><path
         style="display:inline;fill:#000000;fill-opacity:1;stroke-width:0.264583"
         d="m 111.62804,54.440359 17.8576,-3.831791 1.01217,4.193281 -11.56767,14.314995 13.37512,-0.722979 -0.0723,3.253409 -15.68866,3.181109 -0.14459,-4.843962 8.53115,-14.242698 -11.69986,2.364657 z"
         id="path5258" /></g><g
       id="layer4"
       style="display:inline;fill:#000000;fill-opacity:1"><path
         style="display:inline;fill:#000000;fill-opacity:1;stroke-width:0.264583"
         d="m 100.20496,61.597857 19.88194,-3.904089 0.86758,3.542599 -12.14606,16.628531 14.82108,-1.301364 0.11979,3.997564 -18.19428,3.304528 -0.14459,-4.771665 9.25413,-15.399464 -12.57984,2.53043 z"
         id="path5253" /></g><g
       id="layer1"
       style="display:inline;fill:#000000;fill-opacity:1"><path
         style="display:inline;fill:#000000;fill-opacity:1;stroke-width:0.264583"
         d="M 42.66162,101.2223 62.65047,98.308326 C 53.221917,127.37325 81.644004,127.99975 83.221203,116.32262 84.074356,110.00612 77.303309,91.857037 66.202246,54.205922 L 88.48543,48.940578 c 2.506769,16.312068 3.52667,27.901793 4.876772,41.654077 1.350102,13.752285 1.682554,26.133815 -3.476008,31.679115 -2.511086,2.69934 -5.608556,5.76269 -17.515826,7.01568 -20.246256,2.1305 -31.484475,-17.24818 -29.708748,-28.06715 z"
         id="path246" /></g><g
       id="layer2"
       style="display:inline;fill:#000000;fill-opacity:1"><path
         style="display:inline;fill:#000000;fill-opacity:1;stroke-width:0.264583"
         d="m 83.648733,105.62731 8.45886,-37.522637 10.989287,-0.216893 17.20692,33.54625 -8.60346,1.59055 -4.48247,-10.04941 -11.856868,1.229066 -0.650683,11.567664 z"
         id="path349"
         clip-path="url(#clipPath369)" /></g></g></svg>
